<?xml version="1.0" encoding="UTF-8" standalone="no"?>
<!-- Created with Inkscape (http://www.inkscape.org/) -->

<svg
   xmlns:dc="http://purl.org/dc/elements/1.1/"
   xmlns:cc="http://creativecommons.org/ns#"
   xmlns:rdf="http://www.w3.org/1999/02/22-rdf-syntax-ns#"
   xmlns:svg="http://www.w3.org/2000/svg"
   xmlns="http://www.w3.org/2000/svg"
   xmlns:sodipodi="http://sodipodi.sourceforge.net/DTD/sodipodi-0.dtd"
   xmlns:inkscape="http://www.inkscape.org/namespaces/inkscape"
   width="72.034897mm"
   height="85.880692mm"
   viewBox="0 0 72.034897 85.880692"
   version="1.1"
   id="svg8"
   inkscape:version="0.92.2 (5c3e80d, 2017-08-06)"
   sodipodi:docname="logo2.svg">
  <defs
     id="defs2" />
  <sodipodi:namedview
     id="base"
     pagecolor="#ffffff"
     bordercolor="#666666"
     borderopacity="1.0"
     inkscape:pageopacity="0.0"
     inkscape:pageshadow="2"
     inkscape:zoom="0.35"
     inkscape:cx="195.11502"
     inkscape:cy="45.714287"
     inkscape:document-units="mm"
     inkscape:current-layer="layer1"
     showgrid="false"
     inkscape:window-width="1366"
     inkscape:window-height="705"
     inkscape:window-x="-8"
     inkscape:window-y="-8"
     inkscape:window-maximized="1" />
  <metadata
     id="metadata5">
    <rdf:RDF>
      <cc:Work
         rdf:about="">
        <dc:format>image/svg+xml</dc:format>
        <dc:type
           rdf:resource="http://purl.org/dc/dcmitype/StillImage" />
        <dc:title></dc:title>
      </cc:Work>
    </rdf:RDF>
  </metadata>
  <g
     inkscape:label="Capa 1"
     inkscape:groupmode="layer"
     id="layer1"
     transform="translate(-54.209152,-75.047876)">
    <ellipse
       style="fill:#241c1c;stroke-width:0.26458332"
       id="path14"
       cx="94.494049"
       cy="129.93452"
       rx="31.75"
       ry="30.994047" />
    <path
       sodipodi:type="spiral"
       style="fill:none;fill-rule:evenodd;stroke:#000000;stroke-width:0.26458332"
       id="path16"
       sodipodi:cx="84.666664"
       sodipodi:cy="108.76786"
       sodipodi:expansion="1"
       sodipodi:revolution="3"
       sodipodi:radius="39.309525"
       sodipodi:argument="-17.673552"
       sodipodi:t0="0"
       d="m 84.666664,108.76786 c 0.758047,1.81931 -2.078396,1.91941 -3.023808,1.25992 -2.562008,-1.78717 -1.528093,-5.58565 0.503962,-7.30754 3.634869,-3.08005 9.078301,-1.37481 11.591272,2.26785 3.687885,5.34575 1.23711,12.6256 -4.031733,15.875 -7.022538,4.33095 -16.193256,1.10726 -20.158735,-5.79561 -4.990152,-8.68656 -0.981699,-19.770847 7.559503,-24.442471 10.34454,-5.657962 23.354075,-0.858682 28.726195,9.323389 6.33087,11.999222 0.73727,26.940822 -11.08727,33.009932 -13.651899,7.00702 -30.529931,0.61692 -37.293663,-12.85116 -7.685382,-15.30328 -0.497311,-34.120686 14.615045,-41.577395 16.95378,-8.3653 37.712648,-0.378245 45.861128,16.37893 9.04636,18.603645 0.25958,41.305505 -18.142817,50.144855" />
    <path
       sodipodi:type="star"
       style="fill:#008000;stroke-width:0.26458332"
       id="path21"
       sodipodi:sides="5"
       sodipodi:cx="93.738091"
       sodipodi:cy="129.17857"
       sodipodi:r1="23.905312"
       sodipodi:r2="11.952656"
       sodipodi:arg1="0.9652515"
       sodipodi:arg2="1.59357"
       inkscape:flatsided="false"
       inkscape:rounded="0"
       inkscape:randomized="0"
       d="m 107.34524,148.83333 -13.879332,-7.7052 -14.215764,7.06526 3.039134,-15.58106 -11.112376,-11.33671 15.757616,-1.92443 7.347938,-14.07173 6.699604,14.3917 15.65366,2.6399 -11.61704,10.81899 z"
       inkscape:transform-center-x="-0.16821709"
       inkscape:transform-center-y="-2.1221786" />
    <path
       sodipodi:type="star"
       style="fill:#008000;stroke-width:0.26458332"
       id="path23"
       sodipodi:sides="5"
       sodipodi:cx="98.273804"
       sodipodi:cy="84.577377"
       sodipodi:r1="2.2678571"
       sodipodi:r2="1.1339285"
       sodipodi:arg1="0"
       sodipodi:arg2="0.62831853"
       inkscape:flatsided="false"
       inkscape:rounded="0"
       inkscape:randomized="0"
       d="m 100.54166,84.577377 -1.350489,0.666507 -0.216561,1.490354 -1.051209,-1.078431 -1.484332,0.254583 0.700806,-1.333013 -0.700806,-1.333013 1.484332,0.254583 1.051209,-1.07843 0.216561,1.490354 z"
       inkscape:transform-center-x="-0.21655985"
       inkscape:transform-center-y="-1.0655418e-006" />
    <path
       sodipodi:type="star"
       style="fill:#008000;stroke-width:0.26458332"
       id="path25"
       sodipodi:sides="5"
       sodipodi:cx="76.351196"
       sodipodi:cy="83.065475"
       sodipodi:r1="3.3807216"
       sodipodi:r2="1.6903609"
       sodipodi:arg1="0.46364761"
       sodipodi:arg2="1.0919661"
       inkscape:flatsided="false"
       inkscape:rounded="0"
       inkscape:randomized="0"
       d="m 79.375006,84.57738 -2.244991,-0.01165 -1.282317,1.842764 -0.682659,-2.138713 -2.148831,-0.650111 1.823084,-1.310146 -0.04573,-2.244555 1.809387,1.328998 2.120567,-0.7371 -0.704821,2.131512 z"
       inkscape:transform-center-x="0.15559051"
       inkscape:transform-center-y="0.17125431" />
    <path
       sodipodi:type="star"
       style="fill:#008000;stroke-width:0.26458332"
       id="path27"
       sodipodi:sides="5"
       sodipodi:cx="59.720238"
       sodipodi:cy="101.96429"
       sodipodi:r1="5.0710831"
       sodipodi:r2="2.5355415"
       sodipodi:arg1="0.46364761"
       sodipodi:arg2="1.0919661"
       inkscape:flatsided="false"
       inkscape:rounded="0"
       inkscape:randomized="0"
       d="m 64.255952,104.23214 -3.367486,-0.0175 -1.923476,2.76414 -1.023989,-3.20807 -3.223247,-0.97516 2.734626,-1.96522 -0.0686,-3.366834 2.71408,1.993497 3.18085,-1.105651 -1.057232,3.197268 z"
       inkscape:transform-center-x="0.23338505"
       inkscape:transform-center-y="0.25688176" />
  </g>
</svg>
